<?xml version="1.0" encoding="utf-8"?>
<!-- Generator: Adobe Illustrator 25.4.1, SVG Export Plug-In . SVG Version: 6.00 Build 0)  -->
<svg version="1.1" id="Camada_1_xA0_Imagem_00000039833743487122655590000009204457826129040819_"
	 xmlns="http://www.w3.org/2000/svg" xmlns:xlink="http://www.w3.org/1999/xlink" x="0px" y="0px" viewBox="0 0 719.76 173.28"
	 style="enable-background:new 0 0 719.76 173.28;" xml:space="preserve">
<style type="text/css">
	.st0{fill:#5608F3;}
	.st1{fill:#363636;}
	.st2{fill:#414141;}
	.st3{fill:#424242;}
</style>
<g>
	<g>
		<path class="st0" d="M304.7,0.24c1.6,0.24,3.2,0.46,4.79,0.71c5.85,0.93,11.32,2.79,15.93,6.67c5.18,4.35,8.05,10.1,9.45,16.55
			c0.87,4,1.49,8.11,1.62,12.19c0.22,6.58,0.07,13.18-0.17,19.76c-0.16,4.52-1.17,8.93-2.95,13.13c-2.39,5.65-6.29,9.84-11.88,12.43
			c-0.34,0.16-0.67,0.35-1.3,0.68c0.67,0.26,1.02,0.4,1.37,0.53c5.61,2.01,9.62,5.68,11.93,11.22c2.39,5.74,3.24,11.77,3.31,17.9
			c0.11,9.1-0.03,18.21,0.11,27.32c0.05,2.88,0.59,5.77,1.09,8.63c0.18,1.06,0.87,2.04,1.37,3.15c-0.28,0.04-0.53,0.11-0.78,0.11
			c-7.64,0.08-15.27,0.14-22.91,0.26c-0.96,0.02-1.39-0.32-1.79-1.15c-1.59-3.37-1.63-6.97-1.65-10.56
			c-0.06-9.03-0.05-18.05-0.06-27.08c0-3.17-0.3-6.28-1.2-9.35c-1.27-4.3-4.11-6.92-8.45-7.69c-2.54-0.45-5.16-0.49-7.75-0.6
			c-2.11-0.09-4.22-0.02-6.5-0.02c0,0.7,0,1.25,0,1.79c0,17.89,0.01,35.78,0.01,53.68c0,1.63,0,1.62-1.61,1.66
			c-7.27,0.18-14.55,0.36-21.82,0.54c-0.35,0.01-0.7,0-1.21,0c0-0.51,0-0.94,0-1.36c0-49.92-0.01-99.84-0.01-149.76
			c0-0.36,0.03-0.72,0.04-1.08c12.53,0,25.05,0.01,37.58,0c0.58,0,1.16-0.16,1.74-0.24C303.58,0.24,304.14,0.24,304.7,0.24z
			 M288.29,72.58c2.19,0,4.14,0.06,6.09-0.02c2.51-0.1,5.06-0.06,7.51-0.52c4.67-0.88,7.82-3.71,9.04-8.37
			c0.49-1.88,0.89-3.84,0.93-5.77c0.13-5.91,0.1-11.82,0.04-17.72c-0.02-1.67-0.23-3.35-0.52-4.99c-1.25-7.09-5.11-10.3-12.3-10.3
			c-3.08,0-6.15,0-9.23,0c-1.56,0-1.56,0-1.56,1.56c0,14.85,0,29.7,0,44.55C288.29,71.47,288.29,71.94,288.29,72.58z"/>
		<path class="st0" d="M246.14,0.48c0.02,0.52,0.05,1.04,0.05,1.55c0,40.34,0,80.67,0.01,121.01c0,3.93-0.33,7.81-1.35,11.62
			c-2.48,9.21-8.45,15.25-17.22,18.54c-10.52,3.94-21.39,4.87-32.43,2.84c-8.12-1.49-14.74-5.39-18.71-12.95
			c-2.14-4.1-3.13-8.53-3.47-13.1c-0.17-2.31-0.23-4.63-0.23-6.94c-0.01-40.54-0.01-81.07-0.01-121.61c0-0.4-0.02-0.8-0.03-1.2
			c8.24,0,16.47,0,24.71,0c-0.01,0.12-0.02,0.24-0.02,0.36c0,41.87,0,83.75,0.02,125.62c0,1.23,0.1,2.47,0.28,3.7
			c0.71,5.03,3.7,8.01,8.73,8.75c2.89,0.43,5.76,0.21,8.53-0.67c3.37-1.07,5.77-3.24,6.7-6.74c0.37-1.38,0.51-2.82,0.76-4.23
			c0.07-0.75,0.2-1.5,0.2-2.25c0.01-40.82,0.01-81.65,0.01-122.47c0-1.83,0-1.83,1.77-1.83C231.66,0.48,238.9,0.48,246.14,0.48z"/>
		<path class="st1" d="M121.4,0.24c-0.01,0.48-0.03,0.96-0.03,1.44c0,45.74,0,91.47,0,137.21c0,0.6,0.05,1.19,0.07,1.79
			c-0.1-0.66-0.29-1.31-0.29-1.97c-0.01-45.46-0.01-90.91-0.01-136.37c0-1.86,0-1.86-1.86-1.86c-7.52,0-15.03,0-22.55,0
			c-0.01-0.08-0.03-0.16-0.04-0.25C104.93,0.24,113.16,0.24,121.4,0.24z"/>
		<path class="st2" d="M222.45,127.03c-0.01-1.56-0.03-3.11-0.03-4.67c0-40.47,0-80.93,0-121.4c0-0.24-0.01-0.48-0.01-0.72
			c7.92,0,15.83,0,23.75,0c-0.01,0.08-0.01,0.16-0.02,0.24c-7.24,0-14.47,0-21.71,0c-1.76,0-1.77,0.01-1.77,1.83
			c0,40.82,0,81.65-0.01,122.47C222.65,125.53,222.52,126.28,222.45,127.03z"/>
		<path class="st2" d="M508.63,0.24c0.01,0.08,0.01,0.16,0.02,0.23c-21.67,0-43.34,0.01-65,0.01c-0.01-0.08-0.02-0.16-0.03-0.25
			C465.28,0.24,486.96,0.24,508.63,0.24z"/>
		<path class="st3" d="M303.02,0.24c-0.58,0.08-1.16,0.24-1.74,0.24c-12.53,0.01-25.05,0.01-37.58,0c-0.01-0.08-0.02-0.16-0.03-0.25
			C276.79,0.24,289.9,0.24,303.02,0.24z"/>
		<path class="st1" d="M25.96,0.49c-0.02-0.08-0.03-0.16-0.05-0.25c11.12,0,22.23,0,33.35,0c0.01,0.08,0.01,0.16,0.02,0.24
			C48.17,0.48,37.07,0.48,25.96,0.49z"/>
		<path class="st2" d="M372.88,0.49c-0.01-0.08-0.03-0.17-0.04-0.25c11.12,0,22.23,0,33.35,0c0,0.08,0,0.16,0,0.24
			C395.08,0.48,383.98,0.48,372.88,0.49z"/>
		<path class="st3" d="M661.22,0.24c-0.01,0.08-0.03,0.17-0.04,0.25c-8.62,0-17.24,0-25.86-0.01c0-0.08-0.01-0.16-0.01-0.24
			C643.95,0.24,652.58,0.24,661.22,0.24z"/>
		<path class="st2" d="M520.65,0.48c-0.01-0.08-0.01-0.16-0.02-0.24c8.16,0,16.31,0,24.47,0c0.01,0.08,0.02,0.15,0.04,0.23
			C536.97,0.47,528.81,0.48,520.65,0.48z"/>
		<path class="st2" d="M597.65,0.48c0-0.08-0.01-0.16-0.01-0.24c8.16,0,16.31,0,24.47,0c0,0.08,0,0.16,0.01,0.24
			C613.96,0.48,605.81,0.48,597.65,0.48z"/>
		<path class="st3" d="M695.11,0.49c-0.02-0.08-0.04-0.17-0.06-0.25c7.76,0,15.51,0,23.27,0c-0.01,0.08-0.01,0.16-0.02,0.24
			C710.57,0.49,702.84,0.49,695.11,0.49z"/>
		<path class="st0" d="M25.96,0.49c11.11,0,22.21-0.01,33.32-0.01c0.55,3.54,1.12,7.09,1.65,10.63c1.8,12.12,3.58,24.24,5.39,36.35
			c1.72,11.52,3.44,23.05,5.2,34.57c1.75,11.44,3.5,22.88,5.35,34.3c2.24,13.87,4.57,27.72,6.87,41.57
			c0.34,2.03,0.71,4.06,1.08,6.19c-8.26,0.84-16.35,1.66-24.58,2.49c-0.33-2.18-0.67-4.25-0.97-6.33c-1.12-7.7-2.25-15.4-3.32-23.11
			c-0.12-0.88-0.47-1-1.23-0.96c-8.54,0.46-17.09,0.92-25.63,1.32c-1.07,0.05-1.39,0.43-1.52,1.46c-1.28,9.65-2.6,19.3-3.94,28.94
			c-0.37,2.69-0.43,2.65-3.09,2.95c-6.39,0.73-12.78,1.49-19.17,2.23c-0.23,0.03-0.47,0.04-0.89,0.07c0.28-1.99,0.53-3.91,0.81-5.82
			c1.65-11.29,3.3-22.58,4.96-33.87c1.55-10.5,3.11-21,4.67-31.5c1.64-11.05,3.27-22.1,4.91-33.16c1.56-10.54,3.12-21.08,4.68-31.62
			c1.56-10.58,3.12-21.16,4.69-31.74C25.44,3.8,25.71,2.14,25.96,0.49z M30.71,114.76c7.39-0.27,14.68-0.53,22.05-0.79
			c-3.65-27.91-7.29-55.71-10.92-83.51c-0.13,0-0.27,0-0.4,0.01C37.86,58.5,34.3,86.54,30.71,114.76z"/>
		<path class="st0" d="M695.11,0.49c7.73,0,15.46-0.01,23.19-0.01c-1.54,4.9-3.07,9.81-4.64,14.71
			C706.34,37.98,699,60.75,691.7,83.54c-0.2,0.62-0.14,1.42,0.06,2.06c9.17,28.72,18.37,57.44,27.56,86.15
			c0.13,0.41,0.25,0.83,0.39,1.27c-0.16,0.06-0.26,0.15-0.36,0.14c-8.26-0.94-16.52-1.86-24.77-2.87c-0.41-0.05-0.94-0.68-1.08-1.14
			c-2.05-6.63-4.03-13.28-6.07-19.91c-3.72-12.17-7.47-24.32-11.21-36.48c-0.11-0.36-0.26-0.71-0.49-1.35
			c-0.26,0.54-0.43,0.79-0.52,1.07c-4.75,14.27-9.48,28.54-14.25,42.81c-1.09,3.25-2.28,6.47-3.38,9.72
			c-0.28,0.83-0.63,1.19-1.61,1.08c-7.07-0.79-14.14-1.51-21.22-2.26c-0.27-0.03-0.53-0.14-0.85-0.22
			c1.59-4.11,3.19-8.15,4.73-12.21c8.2-21.68,15.73-43.6,23.05-65.6c0.45-1.35,0.34-2.5-0.08-3.79
			c-8.7-26.82-17.37-53.65-26.05-80.49c-0.11-0.34-0.17-0.69-0.25-1.04c8.62,0,17.24,0,25.86,0.01c2.17,7.26,4.35,14.52,6.51,21.78
			c3.23,10.86,6.45,21.72,9.67,32.58c0.12,0.4,0.28,0.78,0.73,1.17c0.15-0.43,0.31-0.85,0.44-1.29
			c5.43-17.78,10.85-35.55,16.28-53.33C694.9,1.09,695.01,0.79,695.11,0.49z"/>
		<path class="st0" d="M372.88,0.49c11.1,0,22.21-0.01,33.31-0.01c0.56,3.58,1.13,7.17,1.67,10.75c1.74,11.56,3.43,23.13,5.2,34.68
			c1.83,11.95,3.68,23.9,5.6,35.83c3.7,23.04,7.68,46.04,12.79,68.82c0.08,0.38,0.15,0.76,0.23,1.21c-0.34,0.05-0.56,0.11-0.79,0.11
			c-7.47-0.17-14.95-0.36-22.42-0.49c-1.01-0.02-1.43-0.31-1.62-1.36c-1.28-7.07-2.66-14.11-3.95-21.18
			c-0.15-0.79-0.41-1.05-1.21-1.05c-8.63-0.01-17.27-0.05-25.9-0.12c-0.84-0.01-1.15,0.24-1.3,1.1c-1.31,7.06-2.69,14.11-4.02,21.16
			c-0.15,0.79-0.41,1.12-1.3,1.12c-6.88-0.02-13.75,0.01-20.63,0.02c-0.35,0-0.69-0.05-1.1-0.07c0.92-4.19,1.9-8.27,2.68-12.37
			c2.57-13.48,5.2-26.95,7.56-40.47c2.38-13.68,4.52-27.4,6.66-41.11c1.94-12.42,3.76-24.85,5.63-37.28
			C370.94,13.35,371.91,6.92,372.88,0.49z M399.53,109.11c-3.63-26.28-7.26-52.53-10.88-78.78c-0.07,0.01-0.14,0.01-0.21,0.02
			c-3.55,26.21-7.1,52.43-10.66,78.76C385.01,109.11,392.26,109.11,399.53,109.11z"/>
		<path class="st0" d="M443.65,0.49c21.67,0,43.34-0.01,65-0.01c0.02,2.83,0.06,5.67,0.07,8.5c0.01,4.87-0.03,9.75,0.03,14.62
			c0.01,1.07-0.31,1.34-1.35,1.33c-12.47-0.04-24.95-0.02-37.42-0.03c-0.51,0-1.02,0-1.62,0c0,15.56,0,30.99,0,46.65
			c10.52,0,21.01,0,31.58,0c0,7.71,0,15.19,0,22.81c-0.56,0-1.07,0-1.57,0c-9.55-0.08-19.11-0.15-28.66-0.28
			c-1.18-0.02-1.46,0.33-1.45,1.47c0.04,18.57,0.03,37.14,0.03,55.71c0,0.51,0,1.02,0,1.68c-8.24-0.3-16.33-0.59-24.58-0.88
			c-0.02-0.34-0.07-0.71-0.07-1.09c-0.01-49.92-0.01-99.84-0.01-149.77C443.61,0.96,443.63,0.73,443.65,0.49z"/>
		<path class="st0" d="M96.73,0.48c7.52,0,15.03,0,22.55,0c1.86,0,1.86,0,1.86,1.86c0,45.46,0,90.91,0.01,136.37
			c0,0.66,0.19,1.31,0.29,1.97c13.41-0.64,26.81-1.28,40.33-1.93c0.03,0.57,0.06,1,0.06,1.43c0.01,5.47-0.02,10.94,0.03,16.41
			c0.01,1.04-0.25,1.46-1.35,1.54c-8.17,0.54-16.34,1.11-24.51,1.73c-7.45,0.56-14.9,1.19-22.34,1.81
			c-5.61,0.47-11.21,0.97-16.91,1.46c-0.02-0.48-0.05-0.87-0.05-1.26c0-53.47,0-106.94,0-160.42C96.69,1.12,96.71,0.8,96.73,0.48z"
			/>
		<path class="st0" d="M520.65,0.48c8.16-0.01,16.32-0.01,24.49-0.02c0.03,0.6,0.08,1.19,0.08,1.79
			c0.01,44.65,0.01,89.29,0.02,133.94c0,2.1-0.12,1.81,1.77,1.89c12.38,0.55,24.76,1.09,37.14,1.59c1.19,0.05,1.63,0.32,1.62,1.62
			c-0.08,5.59-0.03,11.18-0.03,16.77c0,0.43,0,0.86,0,1.44c-21.75-1.44-43.37-2.87-65.12-4.31c0-0.43,0-0.9,0-1.37
			c0-50.68-0.01-101.35-0.01-152.03C520.6,1.36,520.63,0.92,520.65,0.48z"/>
		<path class="st0" d="M597.65,0.48c8.16,0,16.31,0,24.47-0.01c0.02,0.52,0.06,1.03,0.06,1.55c0.01,52.96,0.01,105.91,0.01,158.87
			c0,0.55,0,1.1,0,1.88c-8.24-0.73-16.34-1.45-24.58-2.18c0-0.52,0-0.94,0-1.37c0-52.56,0-105.11,0-157.67
			C597.6,1.2,597.64,0.84,597.65,0.48z"/>
	</g>
</g>
</svg>
