<?xml version="1.0" encoding="utf-8"?>
<!-- Generator: Adobe Illustrator 25.4.1, SVG Export Plug-In . SVG Version: 6.00 Build 0)  -->
<svg version="1.1" id="Camada_1" xmlns="http://www.w3.org/2000/svg" xmlns:xlink="http://www.w3.org/1999/xlink" x="0px" y="0px"
	 viewBox="0 0 324.28 318.89" style="enable-background:new 0 0 324.28 318.89;" xml:space="preserve">
<style type="text/css">
	.st0{fill:#FFFFFF;}
</style>
<g>
	<path class="st0" d="M324.45,159.75c0,31.69,0.11,63.37-0.03,95.06c-0.13,31.22-20.3,56.38-50.44,62.98
		c-4.7,1.03-9.64,1.38-14.47,1.39c-52.52,0.1-105.04,0.13-157.55,0.03c-32.58-0.06-58.29-21.4-63.88-53.38
		c-1.32-7.54-0.85-15.41-1.03-23.13c-0.14-6.11-0.1-12.23-0.01-18.34c0.15-9.88,7.03-16.95,16.25-16.84
		c9.04,0.11,15.68,7.23,15.72,16.94c0.04,9.85-0.01,19.71,0.01,29.56c0.05,19.65,13.69,33.32,33.5,33.37
		c30.56,0.07,61.13,0.02,91.69,0.02c21.71,0,43.41,0.06,65.12-0.02c16.22-0.06,28.82-9.7,32.32-24.73c0.73-3.12,0.95-6.42,0.95-9.64
		c0.05-62.25,0.05-124.5,0.03-186.75c-0.01-21-13.42-34.47-34.33-34.48c-51.64-0.02-103.29-0.02-154.93,0
		c-20.97,0.01-34.34,13.43-34.35,34.4c0,9.48,0.03,18.96-0.01,28.44c-0.04,9.9-6.79,17.07-16,17.05
		c-9.05-0.02-15.93-7.05-15.95-16.74c-0.02-12.72-0.35-25.48,0.57-38.14C39.81,26.89,66.61,1.26,96.62,0.21
		c15.2-0.53,30.43-0.21,45.65-0.22c39.17-0.02,78.34-0.09,117.51,0.02c31.42,0.09,56.68,20.26,63.24,50.58
		c1.1,5.06,1.35,10.39,1.37,15.6C324.51,97.37,324.45,128.56,324.45,159.75z"/>
	<path class="st0" d="M158.01,143.71c-1.37-1.5-2.14-2.41-2.97-3.24c-5.73-5.74-11.52-11.41-17.18-17.21
		c-6.54-6.7-6.6-16.47-0.28-22.81c6.26-6.28,16.18-6.29,22.81,0.28c15.86,15.72,31.65,31.51,47.37,47.37
		c6.77,6.83,6.79,16.21,0.02,23.05c-15.72,15.86-31.51,31.65-47.37,47.37c-6.63,6.57-16.55,6.58-22.81,0.31
		c-6.33-6.34-6.28-16.12,0.25-22.81c5.66-5.8,11.46-11.48,17.18-17.22c0.84-0.84,1.6-1.74,2.99-3.26c-2.14,0-3.46,0-4.77,0
		c-43.16,0-86.32,0.01-129.48-0.03c-2.35,0-4.8-0.02-7.04-0.62C9,172.8,4.44,165.6,5.36,157.4c0.84-7.42,7.25-13.49,15.02-13.58
		c14.97-0.19,29.94-0.09,44.91-0.09c29.31-0.01,58.63,0,87.94,0C154.54,143.71,155.87,143.71,158.01,143.71z"/>
</g>
</svg>
